HIERARCHY
ROOT joint_Root
{
	OFFSET 0.0 0.0 0.0
	CHANNELS 6 Xposition Yposition Zposition Zrotation Xrotation Yrotation 
	JOINT Hips
	{
		OFFSET -0.726466 93.3139 -2.00062
		CHANNELS 6 Xposition Yposition Zposition Zrotation Xrotation Yrotation 
		JOINT Spine
		{
			OFFSET 15.7357 0.0 0.0
			CHANNELS 6 Xposition Yposition Zposition Zrotation Xrotation Yrotation 
			JOINT Chest
			{
				OFFSET 8.98455 -0.406207 0.0
				CHANNELS 6 Xposition Yposition Zposition Zrotation Xrotation Yrotation 
				JOINT Neck
				{
					OFFSET 16.3773 0.0 0.0
					CHANNELS 6 Xposition Yposition Zposition Zrotation Xrotation Yrotation 
					JOINT Head
					{
						OFFSET 6.45672 0.0 0.0
						CHANNELS 6 Xposition Yposition Zposition Zrotation Xrotation Yrotation 
						End Site
						{
							OFFSET 0.0 0.0 0.0
						}
					}
				}
				JOINT Shoulder_L
				{
					OFFSET 12.9942 -0.242716 4.98039
					CHANNELS 6 Xposition Yposition Zposition Zrotation Xrotation Yrotation 
					JOINT UpperArm_L
					{
						OFFSET 5.34809 0.0 0.0
						CHANNELS 6 Xposition Yposition Zposition Zrotation Xrotation Yrotation 
						JOINT LowerArm_L
						{
							OFFSET 24.3286 1.87007e-05 0.0
							CHANNELS 6 Xposition Yposition Zposition Zrotation Xrotation Yrotation 
							JOINT Hand_L
							{
								OFFSET 22.2916 0.0 0.0
								CHANNELS 6 Xposition Yposition Zposition Zrotation Xrotation Yrotation 
								End Site
								{
									OFFSET 0.0 0.0 0.0
								}
							}
						}
					}
				}
				JOINT Shoulder_R
				{
					OFFSET 12.9945 -0.242716 -4.98039
					CHANNELS 6 Xposition Yposition Zposition Zrotation Xrotation Yrotation 
					JOINT UpperArm_R
					{
						OFFSET -5.34813 0.0 0.0
						CHANNELS 6 Xposition Yposition Zposition Zrotation Xrotation Yrotation 
						JOINT LowerArm_R
						{
							OFFSET -24.3289 0.000322201 0.0
							CHANNELS 6 Xposition Yposition Zposition Zrotation Xrotation Yrotation 
							JOINT Hand_R
							{
								OFFSET -22.2915 -0.000108084 0.0
								CHANNELS 6 Xposition Yposition Zposition Zrotation Xrotation Yrotation 
								End Site
								{
									OFFSET 0.0 0.0 0.0
								}
							}
						}
					}
				}
			}
		}
		JOINT UpperLeg_L
		{
			OFFSET -2.19248 -6.46944 0.0
			CHANNELS 6 Xposition Yposition Zposition Zrotation Xrotation Yrotation 
			JOINT LowerLeg_L
			{
				OFFSET 39.0811 0.0 -1.23785e-05
				CHANNELS 6 Xposition Yposition Zposition Zrotation Xrotation Yrotation 
				JOINT Foot_L
				{
					OFFSET 40.9854 0.0 -1.26872e-05
					CHANNELS 6 Xposition Yposition Zposition Zrotation Xrotation Yrotation 
					JOINT Toes_L
					{
						OFFSET 11.7543 0.0 0.0
						CHANNELS 6 Xposition Yposition Zposition Zrotation Xrotation Yrotation 
						End Site
						{
							OFFSET 0.0 0.0 0.0
						}
					}
				}
			}
		}
		JOINT UpperLeg_R
		{
			OFFSET -2.19251 6.46944 0.0
			CHANNELS 6 Xposition Yposition Zposition Zrotation Xrotation Yrotation 
			JOINT LowerLeg_R
			{
				OFFSET -39.0811 -0.00228153 -0.0401928
				CHANNELS 6 Xposition Yposition Zposition Zrotation Xrotation Yrotation 
				JOINT Foot_R
				{
					OFFSET -40.9854 0.0 0.0
					CHANNELS 6 Xposition Yposition Zposition Zrotation Xrotation Yrotation 
					JOINT Toes_R
					{
						OFFSET -11.7543 0.0 0.0
						CHANNELS 6 Xposition Yposition Zposition Zrotation Xrotation Yrotation 
						End Site
						{
							OFFSET 0.0 0.0 0.0
						}
					}
				}
			}
		}
	}
}
MOTION
Frames:	4
Frame Time:	0.0333333
0.000000 0.000000 0.000000 0.000000 0.000000 -0.000000 1.282720 89.834500 520.858000 -91.524000 16.783200 -179.864000 15.735700 0.000005 -0.000001 123.009000 82.954500 -124.451000 8.984550 -0.406207 -0.000000 4.180540 7.709750 -3.166230 16.377300 -0.000001 -0.000001 -0.150816 1.315780 2.523520 6.456720 -0.000001 -0.000000 -1.082370 -0.696200 -6.864990 12.994200 -0.242716 4.980390 -89.631500 -0.886178 -67.420800 5.348090 -0.000007 -0.000001 -74.282900 4.224540 11.694500 24.328600 0.000019 0.000005 1.291320 16.872200 -4.440680 22.291600 -0.000001 0.000005 5.559260 5.285260 0.482411 12.994500 -0.242716 -4.980390 88.008300 7.879130 -75.765500 -5.348130 -0.000001 -0.000004 -54.325300 35.753100 -31.526200 -24.328900 0.000322 -0.000009 4.679260 6.061600 -37.784900 -22.291500 -0.000108 -0.000004 12.265100 5.428180 -3.876200 -2.192480 -6.469440 -0.000000 -179.642000 -17.202000 -26.050300 39.081100 -0.000007 -0.000012 0.014313 -0.027337 27.634300 40.985400 -0.000006 -0.000013 -1.179370 -6.837820 -53.286700 11.754300 -0.000000 0.000003 -0.006388 -0.074329 -19.602200 -2.192510 6.469440 -0.000001 168.707000 25.389200 -172.407000 -39.081100 -0.002282 -0.040193 -0.209899 0.600391 19.552200 -40.985400 0.000008 0.000006 -9.266220 -1.535720 -73.367000 -11.754300 -0.000006 -0.000006 -0.013728 -0.129656 -21.861200
0.000000 0.000000 0.000000 0.000000 0.000000 -0.000000 0.636074 89.263500 517.997000 -92.153900 16.156700 -179.936000 15.735700 0.000005 -0.000001 123.808000 83.177000 -125.668000 8.984550 -0.406207 -0.000000 3.727620 7.648540 -3.970260 16.377300 -0.000001 -0.000001 -0.404499 1.068630 2.641290 6.456720 -0.000001 -0.000000 -0.691840 -1.011140 -6.205200 12.994200 -0.242716 4.980390 -89.761400 -0.582856 -67.735500 5.348090 -0.000007 -0.000001 -77.032800 9.268270 9.842580 24.328600 0.000019 0.000005 1.686450 17.203700 -5.684710 22.291600 -0.000001 0.000005 4.064820 5.296080 0.177664 12.994500 -0.242716 -4.980390 88.007700 7.860300 -75.729000 -5.348130 -0.000001 -0.000004 -57.373300 37.376400 -28.027800 -24.328900 0.000322 -0.000009 6.041900 7.572740 -38.774700 -22.291500 -0.000108 -0.000004 11.500200 5.428330 -3.886080 -2.192480 -6.469440 -0.000000 178.781000 -18.757800 -27.371600 39.081100 -0.000007 -0.000012 -0.026963 0.042157 32.603200 40.985400 -0.000006 -0.000013 -0.492231 -3.714320 -55.827900 11.754300 -0.000000 0.000003 -0.004875 -0.060255 -19.028300 -2.192510 6.469440 -0.000001 167.673000 23.811700 -171.505000 -39.081100 -0.002282 -0.040193 0.055898 -0.141158 20.428800 -40.985400 0.000008 0.000006 -6.046930 -4.428280 -75.054100 -11.754300 -0.000006 -0.000006 -0.010897 -0.110223 -21.065100
0.000000 0.000000 0.000000 0.000000 0.000000 -0.000000 -0.213640 88.731100 514.724000 -92.600700 15.627400 -179.040000 15.735700 0.000005 -0.000001 123.161000 83.097400 -125.251000 8.984550 -0.406207 -0.000000 3.962350 7.610270 -4.443000 16.377300 -0.000001 -0.000001 -0.554091 0.719832 2.750760 6.456720 -0.000001 -0.000000 -0.298663 -1.129630 -5.883150 12.994200 -0.242716 4.980390 -90.035700 0.089304 -68.220800 5.348090 -0.000007 -0.000001 -78.719200 15.416400 7.115880 24.328600 0.000019 0.000005 2.029600 15.900000 -7.371360 22.291600 -0.000001 0.000005 3.308440 5.317410 -0.423013 12.994500 -0.242716 -4.980390 88.078900 7.656670 -75.869600 -5.348130 -0.000001 -0.000004 -60.803200 38.273000 -23.619900 -24.328900 0.000322 -0.000009 6.379840 7.910300 -39.097000 -22.291500 -0.000108 -0.000004 10.478800 5.432080 -4.010450 -2.192480 -6.469440 -0.000000 178.021000 -18.353400 -26.815500 39.081100 -0.000007 -0.000012 -0.037350 0.048770 37.447900 40.985400 -0.000006 -0.000013 -0.170909 -3.366930 -60.596100 11.754300 -0.000000 0.000003 -0.002169 -0.030812 -17.829700 -2.192510 6.469440 -0.000001 165.773000 20.621700 -171.477000 -39.081100 -0.002282 -0.040193 0.064919 -0.133728 24.734600 -40.985400 0.000008 0.000006 -7.664810 -6.588540 -72.739700 -11.754300 -0.000006 -0.000006 -0.045708 -0.170675 -22.317400
0.000000 0.000000 0.000000 0.000000 0.000000 -0.000000 -1.161790 88.489400 511.356000 -92.476100 14.493700 -178.039000 15.735700 0.000005 -0.000001 119.972000 83.205600 -121.944000 8.984550 -0.406207 -0.000000 4.150920 6.840630 -4.191930 16.377300 -0.000001 -0.000001 -0.285308 0.520530 2.651120 6.456720 -0.000001 -0.000000 0.069435 -0.970420 -5.782590 12.994200 -0.242716 4.980390 -90.545200 1.376280 -68.384600 5.348090 -0.000007 -0.000001 -78.668300 22.184400 3.865210 24.328600 0.000019 0.000005 2.466600 13.988400 -10.105900 22.291600 -0.000001 0.000005 2.548760 5.355830 -1.558610 12.994500 -0.242716 -4.980390 87.985400 7.884870 -75.618200 -5.348130 -0.000001 -0.000004 -62.434100 39.978000 -20.059000 -24.328900 0.000322 -0.000009 5.642720 7.373020 -37.598200 -22.291500 -0.000108 -0.000004 9.827560 5.434260 -4.086010 -2.192480 -6.469440 -0.000000 177.975000 -16.079800 -24.796200 39.081100 -0.000007 -0.000012 -0.149331 0.176539 40.227800 40.985400 -0.000006 -0.000013 -0.139843 -4.286520 -64.423200 11.754300 -0.000000 0.000003 -0.001541 -0.022818 -17.504600 -2.192510 6.469440 -0.000001 164.795000 17.671300 -172.635000 -39.081100 -0.002282 -0.040193 0.006085 -0.004637 30.984700 -40.985400 0.000008 0.000006 -8.539200 -9.814650 -67.665300 -11.754300 -0.000006 -0.000006 -1.599870 -1.635440 -26.155400
